<?xml version="1.0" encoding="UTF-8"?>
<svg xmlns="http://www.w3.org/2000/svg" xmlns:xlink="http://www.w3.org/1999/xlink" viewBox="0 0 477.9 589.1"><defs>
<style>.cls-1{fill:#646363;mix-blend-mode:screen;opacity:.3;}.cls-2{fill:url(#linear-gradient);}.cls-3{mask:url(#mask);}.cls-4{filter:url(#luminosity-noclip-2);}.cls-5,.cls-6{fill:#f5f5f5;}.cls-7{fill:#fff;}.cls-8{fill:#8fc640;}.cls-9,.cls-10{fill:#bcbec0;}.cls-11{fill:#ddd;}.cls-12{fill:#56504f;}.cls-13{fill:#369bc2;}.cls-14{fill:url(#_ÂÁ_Ï_ÌÌ_È_ËÂÌÚ_29);opacity:.4;}.cls-14,.cls-15{mix-blend-mode:overlay;}.cls-16{fill:#787778;opacity:.2;}.cls-16,.cls-10,.cls-17,.cls-18,.cls-19{mix-blend-mode:multiply;}.cls-17{fill:#e3e4e5;}.cls-15{fill:url(#linear-gradient-2);}.cls-18{fill:#bb202e;opacity:.4;}.cls-19{fill:url(#_ÂÁ_Ï_ÌÌ_È_ËÂÌÚ_7);}.cls-20{fill:url(#linear-gradient-3);}.cls-21{fill:url(#linear-gradient-4);}.cls-22{opacity:.8;}.cls-23{isolation:isolate;}.cls-24{mask:url(#mask-1);}.cls-6{opacity:.4;}</style>
<linearGradient id="linear-gradient" x1="0" y1="165.3" x2="330.6" y2="165.3" gradientTransform="translate(165.3 -68.5) rotate(45)" gradientUnits="userSpaceOnUse">
    <stop offset=".2" stop-color="#e6e7e8"/>
    <stop offset=".5" stop-color="#cfd0d2"/>
    <stop offset=".7" stop-color="#bcbec0"/>
    <stop offset=".8" stop-color="#c5c7c8"/>
    <stop offset="1" stop-color="#dedfe1"/>
    <stop offset="1" stop-color="#e6e7e8"/>
</linearGradient>
<filter id="luminosity-noclip-2" x="36.2" y="39" width="210.5" height="162.1" color-interpolation-filters="sRGB" filterUnits="userSpaceOnUse"><feFlood flood-color="#fff" result="bg"/><feBlend in="SourceGraphic" in2="bg"/></filter><filter id="luminosity-noclip-3" x="8300.3" y="-8494.3" width="-32766" height="32766" color-interpolation-filters="sRGB" filterUnits="userSpaceOnUse"><feFlood flood-color="#fff" result="bg"/><feBlend in="SourceGraphic" in2="bg"/></filter><mask id="mask-1" x="8300.3" y="-8494.3" width="-32766" height="32766" maskUnits="userSpaceOnUse"/><linearGradient id="_ÂÁ_Ï_ÌÌ_È_ËÂÌÚ_7" x1="-198" y1="48" x2="-86.4" y2="197.5" gradientTransform="translate(277.4)" gradientUnits="userSpaceOnUse"><stop offset="0" stop-color="#fff"/><stop offset="1" stop-color="#000"/></linearGradient>
<mask id="mask" x="36.2" y="39" width="210.5" height="162.1" maskUnits="userSpaceOnUse">
<g class="cls-4"><g class="cls-24"><path class="cls-19" d="M36.9,165.5c-1.5,12.3-2.2,28.6,15.8,34.4,9.2,3,20.1,.5,28.4-3.8,8.3-4.3,14.9-10.3,22.4-15.4,16.3-11.1,36.6-18,56.6-24.5,20-6.5,40.4-13.1,57.2-23.8,16.8-10.7,29.7-26.4,29.2-43.2-.4-14.9-7.1-26.2-22.3-35.4-14.4-8.8-32.6-13.9-50.9-14.6-71.8-2.6-119.6,51.2-132.1,100.4-2.2,8.5-3.4,17.3-4.4,26Z"/></g></g></mask><linearGradient id="linear-gradient-2" x1="-198" y1="48" x2="-86.4" y2="197.5" gradientTransform="translate(277.4)" gradientUnits="userSpaceOnUse"><stop offset="0" stop-color="#fff7cc"/><stop offset="1" stop-color="#fff7cc" stop-opacity="0"/></linearGradient><linearGradient id="_ÂÁ_Ï_ÌÌ_È_ËÂÌÚ_29" x1="372.4" y1="280.6" x2="477.9" y2="280.6" gradientUnits="userSpaceOnUse"><stop offset="0" stop-color="#fff7cc"/><stop offset="1" stop-color="#fff7cc"/></linearGradient><linearGradient id="linear-gradient-3" x1="35" y1="426.7" x2="342.8" y2="426.7" gradientUnits="userSpaceOnUse"><stop offset=".2" stop-color="#fff"/><stop offset=".5" stop-color="#cfd0d2"/><stop offset=".7" stop-color="#bcbec0"/><stop offset=".8" stop-color="#c5c7c8"/><stop offset=".9" stop-color="#dedfe0"/><stop offset="1" stop-color="#fff"/></linearGradient><linearGradient id="linear-gradient-4" x1="87.9" y1="392.6" x2="245.3" y2="392.6" gradientUnits="userSpaceOnUse"><stop offset=".2" stop-color="#fff"/><stop offset=".7" stop-color="#cfd0d2"/><stop offset="1" stop-color="#bcbec0"/></linearGradient></defs><g class="cls-23">
<g id="head"><circle class="cls-2" cx="165.3" cy="165.3" r="165.3" transform="translate(-68.5 165.3) rotate(-45)"/><ellipse class="cls-8" cx="164.7" cy="163.2" rx="136" ry="134.6"/><g class="cls-3"><path class="cls-15" d="M36.9,165.5c-1.5,12.3-2.2,28.6,15.8,34.4,9.2,3,20.1,.5,28.4-3.8,8.3-4.3,14.9-10.3,22.4-15.4,16.3-11.1,36.6-18,56.6-24.5,20-6.5,40.4-13.1,57.2-23.8,16.8-10.7,29.7-26.4,29.2-43.2-.4-14.9-7.1-26.2-22.3-35.4-14.4-8.8-32.6-13.9-50.9-14.6-71.8-2.6-119.6,51.2-132.1,100.4-2.2,8.5-3.4,17.3-4.4,26Z"/></g></g><g id="stick"><rect class="cls-11" x="172.5" y="423.9" width="330.8" height="6.8" transform="translate(-155.1 659.1) rotate(-76.8)"/></g><g id="flag"><path class="cls-8" d="M477.9,290.2s-23.8-30.9-59.3-22.3c-35.5,8.6-46.2-5-46.2-5l-18.5,77.2s18.8,11.3,58.1,0c31.8-9.2,44.8,28.8,44.8,28.8,10.3-16.9,13.7-50.5,21-78.8Z"/><path class="cls-14" d="M425.1,272.3c12.8-1.6,36.4,3.5,50.8,25.9,.6-2.7,1.3-5.4,2-8.1,0,0-23.8-30.9-59.3-22.3-35.5,8.6-46.2-5-46.2-5,0,0,2.3,15.5,52.7,9.4Z"/><g class="cls-22"><path class="cls-7" d="M425,328.9c-12.7,0-22.9-10.3-22.9-22.9s10.3-22.9,22.9-22.9,12.2,2.6,16.3,6.8c-4.8-6.6-12.5-10.8-21.3-10.8-14.6,0-26.4,11.8-26.4,26.4s11.8,26.4,26.4,26.4,12.6-2.4,17.2-6.4c-3.5,2.2-7.7,3.5-12.2,3.5Z"/><path class="cls-7" d="M432.9,286.7c5.5,3.2,9.2,9.2,9.2,16.1,0,10.3-8.3,18.6-18.6,18.6s-17.4-7.2-18.5-16.5c0,.4,0,.7,0,1.1,0,11.4,9.2,20.6,20.6,20.6s20.6-9.2,20.6-20.6-5.5-16.3-13.3-19.3Z"/><path class="cls-7" d="M422.9,288.1c-6.9,0-12.8,4.6-14.6,10.9,2.1-4.7,6.8-7.9,12.3-7.9s13.4,6,13.4,13.4-6,13.4-13.4,13.4-2.4-.2-3.5-.5c1.8,.8,3.8,1.2,5.9,1.2,8.4,0,15.3-6.8,15.3-15.3s-6.8-15.3-15.3-15.3Z"/></g></g><g id="body"><path class="cls-13" d="M55.9,469.9c1.7,8,6.8,23.1,17.8,23.4s14.3-7.6,14.3-7.6l-9.3-17.9-22.8,2.2Z"/><path class="cls-18" d="M82.5,491.2c4-2.3,5.4-5.6,5.4-5.6l-9.3-17.9-7.7,.7c2.4,8.2,6.5,15.9,11.6,22.8Z"/><path class="cls-13" d="M317.8,398.7s15.2,19.6,25,18.7c14.2-1.3,13.1-27.8,6-29.6-7.1-1.7-19-8-19-8l-12,18.9Z"/><path class="cls-18" d="M320.5,394.5l-2.7,4.3s15.2,19.6,25,18.7c2.2-.2,4-1.1,5.5-2.3-3.3-12.5-16.4-16.2-27.7-20.7Z"/><path class="cls-13" d="M353.7,403.6c-.5-4.8-2.4-8.8-4.9-9.4-7.1-1.7-19-8-19-8l-9.7,15.3c-1.4-1.6-2.3-2.7-2.3-2.7l12-18.9s11.9,6.3,19,8c3.7,.9,5.8,8.4,4.9,15.7Z"/><path class="cls-20" d="M342.8,381.5l-23.8,21.6-3.7,3.4c-13.1-14.6-26.5-26.6-40.1-30.2,0,0-3.2,117.3-68.3,187.9l-29-1.7-7.6-65.8-1.1,65.8-29,1.7s-39.6-27.1-64.1-90l-23.2,4.6s-38.4-67.9-2.9-130.7c18.6-32.9,50.9-54.2,107.9-58.3,73-5.3,135.9,24.9,184.9,91.7Z"/><path class="cls-16" d="M169.3,485.6c-5.4,1.5-7.5,66.4-6.8,77.3l6.8-.4,1.1-65.8,7.6,65.8,5.5,.3c2.8-20.5-11.2-78.1-14.2-77.2Z"/><path class="cls-5" d="M147.3,563.8l-7.1,.4s-37.6-25.8-62.2-85.3c39.5,60.5,63.6,77.7,69.3,84.8Zm55.2,.2l4.4,.3c60.1-65.2,67.4-170.3,68.2-185.9-4.1,37.1-29.8,136.6-72.6,185.6ZM55.9,351.2c24.5-56.6,139.2-46.1,164.5-43.3,54.6,6,104.6,54.9,119.5,76.3l2.9-2.7c-49-66.8-111.9-97.1-184.9-91.8-57,4.1-89.3,25.5-107.9,58.3-35.5,62.8,2.9,130.7,2.9,130.7l4.1-.8c-9.5-25-30.4-59.4-1.2-126.8Z"/><path class="cls-13" d="M257.4,313.9H73.2c-7.1,0-12.9-5.8-12.9-12.9h0c0-7.1,5.8-12.9,12.9-12.9h184.1c7.1,0,12.9,5.8,12.9,12.9h0c0,7.1-5.8,12.9-12.9,12.9Z"/><path class="cls-18" d="M270.3,300.9c0,3.6-1.4,6.8-3.8,9.1-2.3,2.3-5.6,3.8-9.1,3.8H73.2c-7.2,0-12.9-5.8-12.9-12.9s.2-2.8,.7-4.1c1.7,5.1,6.5,8.8,12.3,8.8h184.1c3.6,0,6.8-1.4,9.1-3.8,1.4-1.4,2.5-3.1,3.1-5,.4,1.3,.7,2.7,.7,4.1Z"/><polygon class="cls-13" points="140.2 564.2 142.5 571.4 132.9 578 169.9 576.8 169.3 562.5 140.2 564.2"/><g><path class="cls-9" d="M243.8,396c1.5,26.6,15.6,36.4,26.2,26.3,2.6-2.5,5.6,7.8-4.8,15.3-9.9,7.2-31.9,5.4-30.3-41.1,0,0,9-1.2,9-.5Z"/><path class="cls-10" d="M251.6,440.2c1.2-.8,2.3-1.7,3.2-2.7,3.1-3.3,4-7.4,4-11.7-7.4-1.9-14-12.2-15-29.8,0-.7-9,.5-9,.5-1,30,7.8,41.3,16.8,43.7Z"/><path class="cls-9" d="M258.7,306.9c-9.7,.9-25,24.4-19.8,47.2,.8,3.3,5.9,1.5,6.1-1.7,1-17.7,12.3-35.5,21.8-38.6,6.9-2.3-5.4-7.2-8.1-6.9Z"/><path class="cls-10" d="M245,319.1c-5.4,9.1-9,22.2-6.1,35.1,.8,3.3,5.9,1.5,6.1-1.7,.5-8.5,3.4-17.1,7.2-24-2-3.5-4.3-6.7-7.2-9.5Z"/><path class="cls-6" d="M257,310.8c2.8,1.1,5.3,2.4,7.6,4.1,.7-.4,1.5-.8,2.2-1,6.9-2.3-5.4-7.2-8.1-6.9-1.7,.2-3.6,1.1-5.5,2.5,1.2,.4,2.5,.9,3.7,1.4Z"/><path class="cls-6" d="M269.9,422.3c-1.4,1.3-2.9,2.3-4.3,3,.1,5-.8,9.9-3.6,14.1,1.1-.5,2.2-1.1,3.1-1.8,10.4-7.5,7.5-17.9,4.8-15.3Z"/></g><g><path class="cls-12" d="M108.2,396.5c1.5,46.5-20.4,48.3-30.3,41.1-2.2-1.6-4.3-2.9-5.3-4.1-.5-4-.4-7.4-.7-11.8,10.5,10.2,25.7,.9,27.2-25.7,0-.7,9,.5,9,.5Z"/><path class="cls-9" d="M108.2,396.5c1.5,46.5-20.4,48.3-30.3,41.1-2.2-1.6-4.3-2.9-5.3-4.1-.5-4-.4-7.4-.7-11.8,10.5,10.2,25.7,.9,27.2-25.7,0-.7,9,.5,9,.5Z"/><path class="cls-9" d="M76.1,313.9c9.5,3.1,20.8,20.9,21.8,38.6,.2,3.1,5.4,5,6.1,1.7,5.2-22.8-10.2-46.3-19.8-47.2-2.7-.3-15,4.7-8.1,6.9Z"/><path class="cls-10" d="M97.9,319.1c5.4,9.1,9,22.2,6.1,35.1-.8,3.3-5.9,1.5-6.1-1.7-.5-8.5-3.4-17.1-7.2-24,2-3.5,4.3-6.7,7.2-9.5Z"/><path class="cls-6" d="M86,310.8c-2.8,1.1-5.3,2.4-7.6,4.1-.7-.4-1.5-.8-2.2-1-6.9-2.3,5.4-7.2,8.1-6.9,1.7,.2,3.6,1.1,5.5,2.5-1.2,.4-2.5,.9-3.7,1.4Z"/></g><path class="cls-18" d="M155.6,577.3l14.2-.5-.6-14.3-8,.5c-.1,5.6-2.2,10.4-5.6,14.3Z"/><polygon class="cls-13" points="207 564.2 204.7 571.4 214.4 578 177.4 576.8 178 562.5 207 564.2"/><path class="cls-18" d="M185.8,563l-7.8-.5-.6,14.3,11.9,.4c-2.2-4.5-3.5-9.4-3.5-14.2Z"/><path class="cls-21" d="M96.6,318.3c8.9-10.4,125.7-9.4,138.3,0,12.6,9.4,13.6,141.6,3.7,150.4-9.9,8.8-137.2,6.2-143.5-.9-11.8-13.3-7.3-139.2,1.6-149.6Z"/><path class="cls-16" d="M238.6,467.5c-9.9,10.8-137.3,7.6-143.6-1.1-5.5-7.6-7.4-45-7.1-84.2,.2,32.9,2.4,61.7,7.1,68.2,6.3,8.7,133.6,11.9,143.6,1.1,4.2-4.6,6.4-35.9,6.7-71.6,.4,41.8-1.9,82.4-6.7,87.7Z"/><path class="cls-1" d="M165.6,319.7c-31.4,0-62.4,1.1-66.7,3.7-4.6,2.7-8,21.4-8.5,39.5-.6-20.3,3.2-45,8.5-48.2,8.7-5.2,123.8-4.7,136.2,0,7.3,2.8,10.7,27.1,10.1,47.4-.5-18-3.8-36.3-10.1-38.6-6.2-2.3-38.1-3.6-69.5-3.7"/><path class="cls-17" d="M113.5,364.8c-8.2,9.3-9.8,65,0,70.2,9.8,5.2,100.8,5.9,104.2,0,3.3-5.9,7.5-62.4,0-70.2-7.5-7.8-96-9.3-104.2,0Z"/><path class="cls-17" d="M70.6,378.4c0-.2-.6-4.2-2.3,3-7.6,33.9-1.4,79.4,3.6,93.6,1.5-.4,2.7-.6,4.3-.8-3.1-20.1-5.9-79.8-5.6-95.8Z"/><path class="cls-16" d="M319,403.1l-3.7,3.4c-13.1-14.6-26.5-26.6-40.1-30.2-.2-.1,7.7-4.8,27.8,9.2,4.4,3.1,12,10.7,16,17.6Z"/></g><g id="body_swirl"><path class="cls-7" d="M172.8,424c-13.7,0-24.8-11.1-24.8-24.8s11.1-24.8,24.8-24.8,13.2,2.8,17.6,7.4c-5.2-7.1-13.5-11.7-23-11.7-15.7,0-28.5,12.8-28.5,28.5s12.8,28.5,28.5,28.5,13.6-2.6,18.6-6.9c-3.8,2.4-8.4,3.8-13.2,3.8Z"/><path class="cls-7" d="M181.3,378.4c6,3.5,10,10,10,17.4,0,11.1-9,20.1-20.1,20.1s-18.8-7.8-20-17.8c0,.4,0,.8,0,1.2,0,12.3,10,22.3,22.3,22.3s22.3-10,22.3-22.3-6-17.7-14.4-20.8Z"/><path class="cls-7" d="M170.6,379.9c-7.5,0-13.8,5-15.8,11.8,2.3-5.1,7.3-8.6,13.2-8.6s14.5,6.5,14.5,14.5-6.5,14.5-14.5,14.5-2.6-.2-3.8-.5c2,.8,4.1,1.3,6.4,1.3,9.1,0,16.5-7.4,16.5-16.5s-7.4-16.5-16.5-16.5Z"/></g></g></svg>