<?xml version="1.0" encoding="UTF-8"?><svg xmlns="http://www.w3.org/2000/svg" xmlns:xlink="http://www.w3.org/1999/xlink" viewBox="0 0 330.6 330.6"><defs><style>.cls-1{fill:url(#linear-gradient);}.cls-2{mask:url(#mask);}.cls-3{filter:url(#luminosity-noclip-2);}.cls-4{fill:#8fc640;}.cls-5{fill:url(#linear-gradient-2);mix-blend-mode:overlay;}.cls-6{fill:url(#_ÂÁ_Ï_ÌÌ_È_ËÂÌÚ_7);mix-blend-mode:multiply;}.cls-7{isolation:isolate;}.cls-8{mask:url(#mask-1);}</style><linearGradient id="linear-gradient" x1="0" y1="165.3" x2="330.6" y2="165.3" gradientTransform="translate(165.3 -68.5) rotate(45)" gradientUnits="userSpaceOnUse"><stop offset=".2" stop-color="#e6e7e8"/><stop offset=".5" stop-color="#cfd0d2"/><stop offset=".7" stop-color="#bcbec0"/><stop offset=".8" stop-color="#c5c7c8"/><stop offset="1" stop-color="#dedfe1"/><stop offset="1" stop-color="#e6e7e8"/></linearGradient><filter id="luminosity-noclip-2" x="36.2" y="39" width="210.5" height="162.1" color-interpolation-filters="sRGB" filterUnits="userSpaceOnUse"><feFlood flood-color="#fff" result="bg"/><feBlend in="SourceGraphic" in2="bg"/></filter><filter id="luminosity-noclip-3" x="8357" y="-8357.7" width="-32766" height="32766" color-interpolation-filters="sRGB" filterUnits="userSpaceOnUse"><feFlood flood-color="#fff" result="bg"/><feBlend in="SourceGraphic" in2="bg"/></filter><mask id="mask-1" x="8357" y="-8357.7" width="-32766" height="32766" maskUnits="userSpaceOnUse"/><linearGradient id="_ÂÁ_Ï_ÌÌ_È_ËÂÌÚ_7" x1="-198" y1="48" x2="-86.4" y2="197.5" gradientTransform="translate(277.4)" gradientUnits="userSpaceOnUse"><stop offset="0" stop-color="#fff"/><stop offset="1" stop-color="#000"/></linearGradient><mask id="mask" x="36.2" y="39" width="210.5" height="162.1" maskUnits="userSpaceOnUse"><g class="cls-3"><g class="cls-8"><path class="cls-6" d="M36.9,165.5c-1.5,12.3-2.2,28.6,15.8,34.4,9.2,3,20.1,.5,28.4-3.8,8.3-4.3,14.9-10.3,22.4-15.4,16.3-11.1,36.6-18,56.6-24.5,20-6.5,40.4-13.1,57.2-23.8,16.8-10.7,29.7-26.4,29.2-43.2-.4-14.9-7.1-26.2-22.3-35.4-14.4-8.8-32.6-13.9-50.9-14.6-71.8-2.6-119.6,51.2-132.1,100.4-2.2,8.5-3.4,17.3-4.4,26Z"/></g></g></mask><linearGradient id="linear-gradient-2" x1="-198" y1="48" x2="-86.4" y2="197.5" gradientTransform="translate(277.4)" gradientUnits="userSpaceOnUse"><stop offset="0" stop-color="#fff7cc"/><stop offset="1" stop-color="#fff7cc" stop-opacity="0"/></linearGradient></defs><g class="cls-7"><g id="Layer_1"><circle class="cls-1" cx="165.3" cy="165.3" r="165.3" transform="translate(-68.5 165.3) rotate(-45)"/><ellipse class="cls-4" cx="164.7" cy="163.2" rx="136" ry="134.6"/><g class="cls-2"><path class="cls-5" d="M36.9,165.5c-1.5,12.3-2.2,28.6,15.8,34.4,9.2,3,20.1,.5,28.4-3.8,8.3-4.3,14.9-10.3,22.4-15.4,16.3-11.1,36.6-18,56.6-24.5,20-6.5,40.4-13.1,57.2-23.8,16.8-10.7,29.7-26.4,29.2-43.2-.4-14.9-7.1-26.2-22.3-35.4-14.4-8.8-32.6-13.9-50.9-14.6-71.8-2.6-119.6,51.2-132.1,100.4-2.2,8.5-3.4,17.3-4.4,26Z"/></g></g></g></svg>