<?xml version="1.0" encoding="UTF-8"?><svg xmlns="http://www.w3.org/2000/svg" xmlns:xlink="http://www.w3.org/1999/xlink" viewBox="0 0 442.8 326.2"><defs><style>.cls-1{fill:#646363;mix-blend-mode:screen;opacity:.3;}.cls-2{fill:url(#linear-gradient);}.cls-3,.cls-4{fill:#f5f5f5;}.cls-5{fill:#fff;}.cls-6{fill:#8fc640;}.cls-7,.cls-8{fill:#bcbec0;}.cls-9{fill:#ddd;}.cls-10{fill:#56504f;}.cls-11{fill:#369bc2;}.cls-12{fill:url(#_ÂÁ_Ï_ÌÌ_È_ËÂÌÚ_29);mix-blend-mode:overlay;opacity:.4;}.cls-13{fill:#787778;opacity:.2;}.cls-13,.cls-8,.cls-14,.cls-15{mix-blend-mode:multiply;}.cls-14{fill:#e3e4e5;}.cls-15{fill:#bb202e;opacity:.4;}.cls-16{fill:url(#linear-gradient-2);}.cls-17{opacity:.8;}.cls-18{isolation:isolate;}.cls-4{opacity:.4;}</style><linearGradient id="_ÂÁ_Ï_ÌÌ_È_ËÂÌÚ_29" x1="337.4" y1="17.7" x2="442.8" y2="17.7" gradientUnits="userSpaceOnUse"><stop offset="0" stop-color="#fff7cc"/><stop offset="1" stop-color="#fff7cc"/></linearGradient><linearGradient id="linear-gradient" x1="0" y1="163.8" x2="307.8" y2="163.8" gradientUnits="userSpaceOnUse"><stop offset=".2" stop-color="#fff"/><stop offset=".5" stop-color="#cfd0d2"/><stop offset=".7" stop-color="#bcbec0"/><stop offset=".8" stop-color="#c5c7c8"/><stop offset=".9" stop-color="#dedfe0"/><stop offset="1" stop-color="#fff"/></linearGradient><linearGradient id="linear-gradient-2" x1="52.9" y1="129.7" x2="210.3" y2="129.7" gradientUnits="userSpaceOnUse"><stop offset=".2" stop-color="#fff"/><stop offset=".7" stop-color="#cfd0d2"/><stop offset="1" stop-color="#bcbec0"/></linearGradient></defs><g class="cls-18"><g id="stick"><rect class="cls-9" x="137.5" y="161" width="330.8" height="6.8" transform="translate(73.9 421.9) rotate(-76.8)"/></g><g id="flag"><path class="cls-6" d="M442.8,27.2s-23.8-30.9-59.3-22.3C348,13.5,337.4,0,337.4,0l-18.5,77.2s18.8,11.3,58.1,0c31.8-9.2,44.8,28.8,44.8,28.8,10.3-16.9,13.7-50.5,21-78.8Z"/><path class="cls-12" d="M390.1,9.4c12.8-1.6,36.4,3.5,50.8,25.9,.6-2.7,1.3-5.4,2-8.1,0,0-23.8-30.9-59.3-22.3-35.5,8.6-46.2-5-46.2-5,0,0,2.3,15.5,52.7,9.4Z"/><g class="cls-17"><path class="cls-5" d="M389.9,65.9c-12.7,0-22.9-10.3-22.9-22.9s10.3-22.9,22.9-22.9,12.2,2.6,16.3,6.8c-4.8-6.6-12.5-10.8-21.3-10.8-14.6,0-26.4,11.8-26.4,26.4s11.8,26.4,26.4,26.4,12.6-2.4,17.2-6.4c-3.5,2.2-7.7,3.5-12.2,3.5Z"/><path class="cls-5" d="M397.8,23.7c5.5,3.2,9.2,9.2,9.2,16.1,0,10.3-8.3,18.6-18.6,18.6s-17.4-7.2-18.5-16.5c0,.4,0,.7,0,1.1,0,11.4,9.2,20.6,20.6,20.6s20.6-9.2,20.6-20.6-5.5-16.3-13.3-19.3Z"/><path class="cls-5" d="M387.9,25.2c-6.9,0-12.8,4.6-14.6,10.9,2.1-4.7,6.8-7.9,12.3-7.9s13.4,6,13.4,13.4-6,13.4-13.4,13.4-2.4-.2-3.5-.5c1.8,.8,3.8,1.2,5.9,1.2,8.4,0,15.3-6.8,15.3-15.3s-6.8-15.3-15.3-15.3Z"/></g></g><g id="body"><path class="cls-11" d="M20.8,207c1.7,8,6.8,23.1,17.8,23.4s14.3-7.6,14.3-7.6l-9.3-17.9-22.8,2.2Z"/><path class="cls-15" d="M47.5,228.3c4-2.3,5.4-5.6,5.4-5.6l-9.3-17.9-7.7,.7c2.4,8.2,6.5,15.9,11.6,22.8Z"/><path class="cls-11" d="M282.8,135.8s15.2,19.6,25,18.7c14.2-1.3,13.1-27.8,6-29.6-7.1-1.7-19-8-19-8l-12,18.9Z"/><path class="cls-15" d="M285.5,131.5l-2.7,4.3s15.2,19.6,25,18.7c2.2-.2,4-1.1,5.5-2.3-3.3-12.5-16.4-16.2-27.7-20.7Z"/><path class="cls-11" d="M318.7,140.6c-.5-4.8-2.4-8.8-4.9-9.4-7.1-1.7-19-8-19-8l-9.7,15.3c-1.4-1.6-2.3-2.7-2.3-2.7l12-18.9s11.9,6.3,19,8c3.7,.9,5.8,8.4,4.9,15.7Z"/><path class="cls-2" d="M307.8,118.6l-23.8,21.6-3.7,3.4c-13.1-14.6-26.5-26.6-40.1-30.2,0,0-3.2,117.3-68.3,187.9l-29-1.7-7.6-65.8-1.1,65.8-29,1.7s-39.6-27.1-64.1-90l-23.2,4.6s-38.4-67.9-2.9-130.7C33.6,52.3,65.9,31,122.9,26.9c73-5.3,135.9,24.9,184.9,91.7Z"/><path class="cls-13" d="M134.2,222.7c-5.4,1.5-7.5,66.4-6.8,77.3l6.8-.4,1.1-65.8,7.6,65.8,5.5,.3c2.8-20.5-11.2-78.1-14.2-77.2Z"/><path class="cls-3" d="M112.3,300.9l-7.1,.4s-37.6-25.8-62.2-85.3c39.5,60.5,63.6,77.7,69.3,84.8Zm55.2,.2l4.4,.3c60.1-65.2,67.4-170.3,68.2-185.9-4.1,37.1-29.8,136.6-72.6,185.6ZM20.8,88.3C45.4,31.7,160.1,42.2,185.3,44.9c54.6,6,104.6,54.9,119.5,76.3l2.9-2.7C258.8,51.8,195.9,21.5,122.9,26.8c-57,4.1-89.3,25.5-107.9,58.3-35.5,62.8,2.9,130.7,2.9,130.7l4.1-.8c-9.5-25-30.4-59.4-1.2-126.8Z"/><path class="cls-11" d="M222.3,51H38.2c-7.1,0-12.9-5.8-12.9-12.9h0c0-7.1,5.8-12.9,12.9-12.9H222.3c7.1,0,12.9,5.8,12.9,12.9h0c0,7.1-5.8,12.9-12.9,12.9Z"/><path class="cls-15" d="M235.3,38c0,3.6-1.4,6.8-3.8,9.1-2.3,2.3-5.6,3.8-9.1,3.8H38.2c-7.2,0-12.9-5.8-12.9-12.9s.2-2.8,.7-4.1c1.7,5.1,6.5,8.8,12.3,8.8H222.3c3.6,0,6.8-1.4,9.1-3.8,1.4-1.4,2.5-3.1,3.1-5,.4,1.3,.7,2.7,.7,4.1Z"/><polygon class="cls-11" points="105.2 301.3 107.5 308.5 97.8 315.1 134.8 313.9 134.2 299.6 105.2 301.3"/><g><path class="cls-7" d="M208.7,133.1c1.5,26.6,15.6,36.4,26.2,26.3,2.6-2.5,5.6,7.8-4.8,15.3-9.9,7.2-31.9,5.4-30.3-41.1,0,0,9-1.2,9-.5Z"/><path class="cls-8" d="M216.5,177.3c1.2-.8,2.3-1.7,3.2-2.7,3.1-3.3,4-7.4,4-11.7-7.4-1.9-14-12.2-15-29.8,0-.7-9,.5-9,.5-1,30,7.8,41.3,16.8,43.7Z"/><path class="cls-7" d="M223.7,44c-9.7,.9-25,24.4-19.8,47.2,.8,3.3,5.9,1.5,6.1-1.7,1-17.7,12.3-35.5,21.8-38.6,6.9-2.3-5.4-7.2-8.1-6.9Z"/><path class="cls-8" d="M210,56.2c-5.4,9.1-9,22.2-6.1,35.1,.8,3.3,5.9,1.5,6.1-1.7,.5-8.5,3.4-17.1,7.2-24-2-3.5-4.3-6.7-7.2-9.5Z"/><path class="cls-4" d="M221.9,47.9c2.8,1.1,5.3,2.4,7.6,4.1,.7-.4,1.5-.8,2.2-1,6.9-2.3-5.4-7.2-8.1-6.9-1.7,.2-3.6,1.1-5.5,2.5,1.2,.4,2.5,.9,3.7,1.4Z"/><path class="cls-4" d="M234.9,159.3c-1.4,1.3-2.9,2.3-4.3,3,.1,5-.8,9.9-3.6,14.1,1.1-.5,2.2-1.1,3.1-1.8,10.4-7.5,7.5-17.9,4.8-15.3Z"/></g><g><path class="cls-10" d="M73.2,133.6c1.5,46.5-20.4,48.3-30.3,41.1-2.2-1.6-4.3-2.9-5.3-4.1-.5-4-.4-7.4-.7-11.8,10.5,10.2,25.7,.9,27.2-25.7,0-.7,9,.5,9,.5Z"/><path class="cls-7" d="M73.2,133.6c1.5,46.5-20.4,48.3-30.3,41.1-2.2-1.6-4.3-2.9-5.3-4.1-.5-4-.4-7.4-.7-11.8,10.5,10.2,25.7,.9,27.2-25.7,0-.7,9,.5,9,.5Z"/><path class="cls-7" d="M41.1,51c9.5,3.1,20.8,20.9,21.8,38.6,.2,3.1,5.4,5,6.1,1.7,5.2-22.8-10.2-46.3-19.8-47.2-2.7-.3-15,4.7-8.1,6.9Z"/><path class="cls-8" d="M62.9,56.2c5.4,9.1,9,22.2,6.1,35.1-.8,3.3-5.9,1.5-6.1-1.7-.5-8.5-3.4-17.1-7.2-24,2-3.5,4.3-6.7,7.2-9.5Z"/><path class="cls-4" d="M51,47.9c-2.8,1.1-5.3,2.4-7.6,4.1-.7-.4-1.5-.8-2.2-1-6.9-2.3,5.4-7.2,8.1-6.9,1.7,.2,3.6,1.1,5.5,2.5-1.2,.4-2.5,.9-3.7,1.4Z"/></g><path class="cls-15" d="M120.6,314.3l14.2-.5-.6-14.3-8,.5c-.1,5.6-2.2,10.4-5.6,14.3Z"/><polygon class="cls-11" points="172 301.3 169.7 308.5 179.3 315.1 142.4 313.9 143 299.6 172 301.3"/><path class="cls-15" d="M150.7,300l-7.8-.5-.6,14.3,11.9,.4c-2.2-4.5-3.5-9.4-3.5-14.2Z"/><path class="cls-16" d="M61.6,55.4c8.9-10.4,125.7-9.4,138.3,0,12.6,9.4,13.6,141.6,3.7,150.4-9.9,8.8-137.2,6.2-143.5-.9-11.8-13.3-7.3-139.2,1.6-149.6Z"/><path class="cls-13" d="M203.6,204.6c-9.9,10.8-137.3,7.6-143.6-1.1-5.5-7.6-7.4-45-7.1-84.2,.2,32.9,2.4,61.7,7.1,68.2,6.3,8.7,133.6,11.9,143.6,1.1,4.2-4.6,6.4-35.9,6.7-71.6,.4,41.8-1.9,82.4-6.7,87.7Z"/><path class="cls-1" d="M130.6,56.7c-31.4,0-62.4,1.1-66.7,3.7-4.6,2.7-8,21.4-8.5,39.5-.6-20.3,3.2-45,8.5-48.2,8.7-5.2,123.8-4.7,136.2,0,7.3,2.8,10.7,27.1,10.1,47.4-.5-18-3.8-36.3-10.1-38.6-6.2-2.3-38.1-3.6-69.5-3.7"/><path class="cls-14" d="M78.4,101.9c-8.2,9.3-9.8,65,0,70.2,9.8,5.2,100.8,5.9,104.2,0,3.3-5.9,7.5-62.4,0-70.2-7.5-7.8-96-9.3-104.2,0Z"/><path class="cls-14" d="M35.6,115.5c0-.2-.6-4.2-2.3,3-7.6,33.9-1.4,79.4,3.6,93.6,1.5-.4,2.7-.6,4.3-.8-3.1-20.1-5.9-79.8-5.6-95.8Z"/><path class="cls-13" d="M284,140.2l-3.7,3.4c-13.1-14.6-26.5-26.6-40.1-30.2-.2-.1,7.7-4.8,27.8,9.2,4.4,3.1,12,10.7,16,17.6Z"/></g><g id="body_swirl"><path class="cls-5" d="M137.8,161.1c-13.7,0-24.8-11.1-24.8-24.8s11.1-24.8,24.8-24.8,13.2,2.8,17.6,7.4c-5.2-7.1-13.5-11.7-23-11.7-15.7,0-28.5,12.8-28.5,28.5s12.8,28.5,28.5,28.5,13.6-2.6,18.6-6.9c-3.8,2.4-8.4,3.8-13.2,3.8Z"/><path class="cls-5" d="M146.3,115.5c6,3.5,10,10,10,17.4,0,11.1-9,20.1-20.1,20.1s-18.8-7.8-20-17.8c0,.4,0,.8,0,1.2,0,12.3,10,22.3,22.3,22.3s22.3-10,22.3-22.3-6-17.7-14.4-20.8Z"/><path class="cls-5" d="M135.5,117c-7.5,0-13.8,5-15.8,11.8,2.3-5.1,7.3-8.6,13.2-8.6s14.5,6.5,14.5,14.5-6.5,14.5-14.5,14.5-2.6-.2-3.8-.5c2,.8,4.1,1.3,6.4,1.3,9.1,0,16.5-7.4,16.5-16.5s-7.4-16.5-16.5-16.5Z"/></g></g></svg>