<?xml version="1.0" encoding="utf-8"?>
<!-- Generator: Adobe Illustrator 26.5.0, SVG Export Plug-In . SVG Version: 6.00 Build 0)  -->
<svg version="1.1" id="Group_7731" xmlns="http://www.w3.org/2000/svg" xmlns:xlink="http://www.w3.org/1999/xlink" x="0px" y="0px"
	 viewBox="0 0 766.6 428.3" style="enable-background:new 0 0 766.6 428.3;" xml:space="preserve">
<style type="text/css">
	.st0{fill:#9ABF1E;}
	.st1{fill:#8FC73E;}
	.st2{fill:none;}
	.st3{fill:#38362D;}
	.st4{fill:#1B180C;}
	.st5{fill:#2A251A;}
	.st6{fill:#769B2F;}
	.st7{display:none;}
	.st8{display:inline;fill:#8FC73E;}
</style>
<rect id="Rectangle_703" x="391" y="139.1" class="st0" width="7.6" height="34.8"/>
<path id="Path_737" class="st1" d="M407.1,139.1h9.3l14.3,25l-0.3-25h7.5v34.8h-8.5l-15-26.3l0.3,26.3h-7.5L407.1,139.1z"/>
<path id="Path_738" class="st1" d="M453.6,145.2h-11.3v-6.1h30.1v6.1h-11.3v28.7h-7.6L453.6,145.2z"/>
<path id="Path_739" class="st1" d="M544.6,145.2h-11.3v-6.1h30.1v6.1h-11.3v28.7h-7.6L544.6,145.2L544.6,145.2z"/>
<path id="Path_740" class="st1" d="M575.5,139.1v14.2h13.4v-14.2h7.3v34.8h-7.3v-14.5h-13.4v14.5h-7.3v-34.8H575.5z"/>
<rect y="0" class="st2" width="766.6" height="428.3"/>
<path id="Path_741" class="st1" d="M618.9,145.1c-2.2-0.1-4.3,0.6-6,2c-1.3,1.3-2.1,3.4-2.2,6.1h20.2v6.1h-20.3c0,3,0.7,5.2,1.9,6.5
	c1.3,1.3,3.4,2,6.3,2h12v6h-12.4c-2.2,0.1-4.3-0.2-6.4-0.7c-1.6-0.5-3.1-1.3-4.4-2.3c-1.8-1.5-3.2-3.4-4-5.5
	c-0.9-2.6-1.4-5.4-1.3-8.2c0-6.2,1.3-10.7,4-13.7c2.7-2.9,6.8-4.4,12.4-4.4h12.1v6.1L618.9,145.1z"/>
<path id="Path_742" class="st1" d="M677.6,173.8h-19.2V139h17.9c1.8,0,3.7,0.1,5.5,0.4c1.2,0.2,2.4,0.6,3.4,1.2
	c1.2,0.8,2.2,1.8,2.9,3.1c0.7,1.4,1.1,2.9,1,4.4c0,1.7-0.4,3.4-1.2,4.9c-1,1.5-2.4,2.7-4,3.4c3.3,1.1,5.5,4.3,5.3,7.9
	c0,3.3-1,5.6-2.9,7.2C684.5,173.1,681.6,173.8,677.6,173.8 M665.8,145.3v8.1h10.6c1.3,0.1,2.6-0.3,3.7-1c1.5-1.7,1.5-4.4,0-6.1
	c-1.1-0.7-2.4-1.1-3.7-1H665.8z M676.6,167.7c1.3,0.1,2.6-0.2,3.7-1c0.8-0.8,1.2-1.9,1.1-3.1c0.1-1.1-0.3-2.3-1.1-3.1
	c-1.1-0.8-2.4-1.1-3.7-1h-10.8v8.2L676.6,167.7z"/>
<path id="Path_743" class="st1" d="M746,156.5l-11.8-17.4h8.6l7.2,11l7.1-11h8.5L754.4,156l12,17.9h-8.8l-7.3-12.1l-7.8,12.1h-8.7
	L746,156.5z"/>
<path id="Path_744" class="st3" d="M183.2,0L4.7,108.4l178.5,115.2l178.5-115.2L183.2,0z M136.5,110.7l46.7-28.4l46.7,28.4
	l-46.7,30.1L136.5,110.7z"/>
<path id="Path_745" class="st4" d="M185.8,228.9v199.4l179-113.7V115.2L185.8,228.9z M302.4,282.2l-44.1,28.2v-50.1l44.1-27.3V282.2
	z"/>
<path id="Path_746" class="st5" d="M0,115.2v199.5l179,113.7V228.9L0,115.2z M113.9,310.5l-44.2-27.4V233l44.2,28.2
	C113.9,261.2,113.9,310.5,113.9,310.5z"/>
<path id="Path_747" class="st6" d="M283.2,386.3l24-14.5l-15.9-10.6l-23.9,15.4L283.2,386.3z"/>
<path id="Path_748" class="st1" d="M283.2,386.3l24-14.5v-88.9l-24,15.4V386.3z"/>
<path id="Path_749" class="st1" d="M262.6,257.7l-4.3,2.7v23.4l25,14.6l24-15.4L262.6,257.7z"/>
<path id="Path_750" class="st6" d="M113.9,266.4l-53.3,35.7L81.1,315l32.8-21.5C113.9,293.5,113.9,266.4,113.9,266.4z"/>
<path id="Path_751" class="st6" d="M183.2,140.9l6-3.8V82l-21.4-12l0.8,61.5L183.2,140.9z"/>
<path id="Path_752" class="st1" d="M189.2,82l-21.4-12L60.5,134.6L81,149.1L189.2,82z"/>
<path id="Path_753" class="st1" d="M81.1,315l-20.5-12.9V134.6l20.5,14.5V315z"/>
<path id="Path_754" class="st1" d="M496.8,171.6c-9,0-16.4-7.3-16.4-16.4s7.3-16.4,16.4-16.4c4.4,0,8.6,1.8,11.7,4.9
	c-6.1-8.4-17.9-10.2-26.3-4.1c-8.4,6.1-10.2,17.9-4.1,26.3c6.1,8.4,17.9,10.2,26.3,4.1c0.4-0.3,0.8-0.6,1.2-0.9
	C503,170.8,499.9,171.7,496.8,171.6"/>
<path id="Path_755" class="st1" d="M502.5,141.5c6.3,3.7,8.5,11.8,4.8,18.2s-11.8,8.5-18.2,4.8c-3.6-2.1-6-5.8-6.5-10
	c0,0.3,0,0.5,0,0.8c0,8.1,6.6,14.7,14.7,14.7s14.7-6.6,14.7-14.7C512,149.2,508.2,143.7,502.5,141.5"/>
<path id="Path_756" class="st1" d="M495.4,142.5c-4.8,0-9.1,3.2-10.4,7.8c2.2-4.8,7.8-7,12.7-4.8s7,7.8,4.8,12.7
	c-1.9,4.3-6.7,6.6-11.2,5.3c5.6,2.3,11.9-0.3,14.3-5.9s-0.3-11.9-5.9-14.3C498.3,142.8,496.8,142.5,495.4,142.5"/>
<path id="Path_757" class="st1" d="M715.7,171.6c-9,0-16.4-7.3-16.4-16.4s7.3-16.4,16.4-16.4c4.4,0,8.6,1.8,11.7,4.9
	c-6.1-8.4-17.9-10.2-26.3-4.1c-8.4,6.1-10.2,17.9-4.1,26.3c6.1,8.4,17.9,10.2,26.3,4.1c0.4-0.3,0.8-0.6,1.2-0.9
	C721.8,170.8,718.8,171.7,715.7,171.6"/>
<path id="Path_758" class="st1" d="M721.3,141.5c6.3,3.7,8.5,11.8,4.8,18.2s-11.8,8.5-18.2,4.8c-3.6-2.1-6-5.8-6.5-10
	c0,0.3,0,0.5,0,0.8c0,8.1,6.6,14.7,14.7,14.7s14.7-6.6,14.7-14.7C730.8,149.2,727.1,143.7,721.3,141.5"/>
<path id="Path_759" class="st1" d="M714.2,142.5c-4.8,0-9.1,3.2-10.4,7.8c2.2-4.8,7.8-7,12.7-4.8c4.8,2.2,7,7.8,4.8,12.7
	c-1.9,4.3-6.7,6.6-11.2,5.3c5.6,2.3,11.9-0.3,14.3-5.9s-0.3-11.9-5.9-14.3C717.1,142.8,715.7,142.5,714.2,142.5"/>
<g>
	<path id="Path_760" class="st1" d="M409,263.7h61.9v16.8h-82v-25.2c-0.1-10.6,2.5-18.7,8-24.2c2.3-2.4,5.2-4.1,8.4-5
		c3-0.8,7.8-1.2,14.3-1.2h15.5c5.2,0,8.9-0.6,11.2-1.9c3.2-1.7,5.2-5.1,5.1-8.7c0-4.3-1.6-7.4-4.7-9.4c-2.4-1.5-6.2-2.2-11.5-2.2
		h-44.5v-16.8h48.8c12.1,0,20.6,2,25.4,6c2.9,2.5,5.1,5.6,6.5,9.2c1.6,3.9,2.4,8.1,2.3,12.4c0.1,5-0.9,10-2.8,14.6
		c-1.6,3.9-4.4,7.1-7.9,9.3c-4.9,2.9-12.2,4.3-22.1,4.3h-13.4c-3.6-0.1-7.1,0.2-10.6,0.9c-2,0.4-3.9,1.5-5.2,3.1
		c-1.5,1.6-2.3,4.8-2.4,9.6L409,263.7z"/>
	<path id="Path_761" class="st1" d="M608.4,263.7h61.9v16.8h-82v-25.2c-0.1-10.6,2.5-18.7,8-24.2c2.3-2.4,5.2-4.1,8.4-5
		c3-0.8,7.8-1.2,14.3-1.2h15.5c5.2,0,8.9-0.6,11.2-1.9c3.2-1.7,5.2-5.1,5.1-8.7c0-4.3-1.6-7.4-4.7-9.4c-2.4-1.5-6.2-2.2-11.5-2.2
		h-44.5v-16.8h48.8c12.1,0,20.6,2,25.4,6c2.9,2.5,5.1,5.6,6.5,9.2c1.6,3.9,2.4,8.1,2.3,12.4c0.1,5-0.9,10-2.8,14.6
		c-1.6,3.9-4.4,7.1-7.9,9.3c-4.9,2.9-12.2,4.3-22.1,4.3h-13.4c-3.6-0.1-7.1,0.2-10.6,0.9c-2,0.4-3.9,1.5-5.2,3.1
		c-1.5,1.6-2.3,4.8-2.4,9.6L608.4,263.7z"/>
	<path id="Path_762" class="st1" d="M702.3,263.7h61.9v16.8h-82v-25.2c-0.1-10.6,2.5-18.7,8-24.2c2.3-2.4,5.2-4.1,8.4-5
		c3-0.8,7.8-1.2,14.3-1.2h15.5c5.2,0,8.9-0.6,11.2-1.9c3.2-1.7,5.2-5.1,5.1-8.7c0-4.3-1.6-7.4-4.7-9.4c-2.4-1.5-6.2-2.2-11.5-2.2
		H684v-16.8h48.8c12.1,0,20.6,2,25.4,6c2.9,2.5,5.1,5.6,6.5,9.2c1.6,3.9,2.4,8.1,2.3,12.4c0.1,5-0.9,10-2.8,14.6
		c-1.6,3.9-4.4,7.1-7.9,9.3c-4.9,2.9-12.2,4.3-22.1,4.3h-13.4c-3.6-0.1-7.1,0.2-10.6,0.9c-2,0.4-3.9,1.5-5.2,3.1
		c-1.5,1.6-2.3,4.8-2.4,9.6v8.4H702.3z"/>
	<g id="Group_2092" transform="translate(482.521 185.953)">
		<path id="Path_763" class="st1" d="M56.1,89.3C33.4,89.4,15,70.9,15,48.2S33.4,7.1,56.1,7.1c11,0,21.5,4.4,29.3,12.2
			C70-1.7,40.4-6.3,19.3,9.1C-1.7,24.5-6.3,54,9.1,75.1C24.4,96.1,54,100.7,75,85.4c1-0.7,2-1.5,3-2.4
			C71.5,87.2,63.8,89.4,56.1,89.3"/>
		<path id="Path_764" class="st1" d="M70.2,13.7c15.9,9.3,21.3,29.7,12,45.6s-29.7,21.3-45.6,12c-9.1-5.3-15.1-14.6-16.3-25
			c0,0.7-0.1,1.3-0.1,2c0,20.4,16.5,36.9,36.9,36.9S94,68.7,94,48.3C94.1,32.9,84.6,19.2,70.2,13.7"/>
		<path id="Path_765" class="st1" d="M52.4,16.3c-12.1,0-22.8,8-26.2,19.6C31.6,23.7,45.8,18.3,58,23.7
			c12.1,5.4,17.6,19.7,12.1,31.8C65.2,66.3,53.3,72,41.9,68.9c13.9,5.8,30-0.8,35.8-14.7s-0.8-30-14.7-35.8
			C59.6,17,56,16.3,52.4,16.3"/>
	</g>
</g>
<g class="st7">
	<path class="st8" d="M584.6-99.4h-19.7v-92.9h19.7V-99.4z"/>
	<path class="st8" d="M662.8-137.6h-31.2c-7.1,0-12.4-0.4-15.8-1.1c-3.4-0.7-6.2-2-8.6-4c-6-4.9-9.1-11.9-9.1-20.9
		c0-10.5,4.6-18.6,13.7-24.2c5.7-3.4,14.4-5.2,26.2-5.2c8.4,0,15.2,0.7,20.3,2.2s9.5,3.9,13.3,7.4c4.6,4.4,8,10.2,10.3,17.4
		c2,6.6,3.1,13.3,3.1,20.1c0,10.3-2.1,19.7-6.4,28c-4.4,8.5-10.9,14-19.7,16.3c-4.8,1.3-12,2-21.4,2h-34.3v-16.5h28.4
		c12.4,0.2,20.5-1,24.2-3.6c2.2-1.6,3.9-3.9,5.2-7.1C662.1-129.7,662.7-133.3,662.8-137.6z M662.8-154c0-6.8-1.4-12.2-4-16.1
		c-1.7-2.6-4.1-4.5-7.2-5.5c-3.1-1-7.5-1.6-13.4-1.6c-6.8,0-11.3,0.8-13.6,2.3c-3.1,2-4.7,5.3-4.7,9.7c0,3.9,1.5,7,4.5,9.1
		c1.9,1.4,5.4,2.1,10.5,2.1H662.8z"/>
</g>
</svg>
